<svg xmlns="http://www.w3.org/2000/svg" viewBox="0 0 74.67 35.55"><defs><style>.cls-1{fill:#1c2b36;}</style></defs><title>Zasób 10</title><g id="Warstwa_2" data-name="Warstwa 2"><g id="logo"><path class="cls-1" d="M45.37,0A68.22,68.22,0,0,0,32.47,5,68.62,68.62,0,0,1,46.14,2.88Q45.79,1.43,45.37,0Z"/><path class="cls-1" d="M49.07,5.65c-2.22,0-4.41.11-6.57.31a68.17,68.17,0,0,1,2.15,7.59,69.28,69.28,0,0,1,20.72.15,68.39,68.39,0,0,1-3.71,7.7,68.28,68.28,0,0,0-16.24-3.81,69,69,0,0,1,.82,8.63,68.17,68.17,0,0,1,15.89,4.52A68.71,68.71,0,0,0,74.67,10.59,68.47,68.47,0,0,0,49.07,5.65Z"/><circle class="cls-1" cx="56.55" cy="33.35" r="2.2"/><circle class="cls-1" cx="48.42" cy="31.14" r="2.2"/><path class="cls-1" d="M37.91,17.19a69.29,69.29,0,0,0-8.93.58A68.17,68.17,0,0,1,41.9,14a68.08,68.08,0,0,0-2.49-7.68A68.5,68.5,0,0,0,0,26.3a68.34,68.34,0,0,1,20.89-4.65,68.91,68.91,0,0,0-13,9.52,68.4,68.4,0,0,1,27.62-5.79,69.32,69.32,0,0,1,8.45.52,68.63,68.63,0,0,0-1.23-8.55Q40.32,17.19,37.91,17.19Z"/></g></g></svg>